<?xml version="1.0" encoding="UTF-8"?>
<svg fill="none" viewBox="0 0 15 15" xmlns="http://www.w3.org/2000/svg">
 <g clip-path="url(#clip0_115_2)" fill="#fff">
  <path d="m2.8481 6.5488c0 0.03437 0.00313 0.05625 0.01563 0.06875 0.01 0.01167 0.02792 0.01708 0.05375 0.01625h0.04062c0.01875 0 0.03751-0.00312 0.05001-0.00312h1.1919c0.26667 0 0.48021-0.05355 0.64062-0.16063 0.1575-0.10625 0.23938-0.27312 0.23938-0.49937 0.00278-0.07164-0.01048-0.14299-0.03881-0.20884-0.02833-0.06586-0.07102-0.12455-0.12494-0.17179-0.11-0.09333-0.26083-0.15396-0.4525-0.18188 0.34562-0.06875 0.52188-0.25437 0.52188-0.55312 0-0.19417-0.07855-0.33979-0.23563-0.43688-0.1575-0.09375-0.36125-0.14437-0.6125-0.14437h-1.1956c-0.01562 0-0.025-0.00312-0.03125-0.00312-0.025 0-0.04374 0.00624-0.04999 0.01874-0.01 0.0125-0.01251 0.03438-0.01251 0.06876v0.10437c0 0.02458 0.00292 0.03813 0.00875 0.04063 0.00625 0.00625 0.025 0.00625 0.05625 0.00625h0.23625c0.01875 0 0.02813 0.00624 0.03438 0.01249s0.00938 0.02501 0.00938 0.05001v1.6844c0 0.06875-0.00625 0.10979-0.01875 0.12312-0.0125 0.0125-0.05 0.01563-0.11625 0.01563h-0.15063c-0.02875 0-0.04375 0.00625-0.05 0.0125-0.00667 0.00875-0.01 0.03167-0.01 0.06875l6.2e-4 0.0725zm0.77-1.3794c0 0.05625 0.00313 0.09126 0.01563 0.10376 0.01 0.015 0.03417 0.02229 0.0725 0.02187h0.43c0.27063 0 0.40875-0.12875 0.40875-0.3925 0-0.26125-0.13812-0.39312-0.40875-0.39312h-0.42688c-0.04437 0-0.07249 0.00624-0.07874 0.01562-0.00875 0.00958-0.01292 0.03792-0.01251 0.085v0.55937zm0.55001 1.2256h-0.44313c-0.04688 0-0.07563-0.00312-0.08813-0.01312-0.0125-0.00959-0.01875-0.03042-0.01875-0.0625v-0.67251c0-0.05 0.00313-0.085 0.01563-0.0975 0.00917-0.0125 0.03104-0.01875 0.06563-0.01875h0.46875c0.11469-0.00484 0.22725 0.03202 0.31687 0.10376 0.08167 0.06958 0.1225 0.17645 0.1225 0.32062 0 0.1475-0.04375 0.2575-0.12563 0.33-0.08603 0.07652-0.19876 0.11605-0.31374 0.11z" clip-rule="evenodd" fill-rule="evenodd"/>
  <path d="m6.5556 6.5894c0 0.02187 0.00313 0.03749 0.01563 0.04374 0.00937 0.01 0.03125 0.01251 0.06625 0.01251h0.085c0.01875 0 0.0375-1e-5 0.05-0.00251 0.01339-0.00227 0.02568-0.00886 0.035-0.01875 0.00625-0.01 0.0125-0.01833 0.01875-0.025 0.00375-0.00583 0.00896-0.01645 0.01562-0.03187 0.00483-0.01316 0.01112-0.02574 0.01876-0.0375 0.02208-0.04167 0.0377-0.0625 0.04687-0.0625 0.00542 4.2e-4 0.02542 0.01187 0.06 0.03437 0.1475 0.11875 0.33625 0.175 0.56563 0.175 0.27 0 0.48979-0.06249 0.65937-0.18749 0.08135-0.05915 0.14688-0.13741 0.19081-0.22788 0.04392-0.09048 0.0649-0.19037 0.06107-0.29087 0.00223-0.1179-0.02483-0.23451-0.07875-0.33938-0.04567-0.08856-0.11405-0.16341-0.19813-0.21687-0.08618-0.05174-0.17777-0.09386-0.27313-0.12563-0.09827-0.03455-0.19794-0.065-0.29875-0.09125-0.09153-0.02321-0.18167-0.05159-0.27-0.085-0.07681-0.02692-0.1459-0.07219-0.20124-0.13187-0.05086-0.05937-0.07762-0.13563-0.075-0.21376 0-0.09333 0.03749-0.16666 0.11249-0.21999 0.07542-0.05376 0.18875-0.08084 0.34-0.08126 0.12834 4.2e-4 0.24876 0.03709 0.36126 0.11 0.10773 0.0687 0.18783 0.17314 0.22624 0.29501 4.2e-4 0.00916 0.0025 0.03125 0.00625 0.06625 0.00194 0.02709 0.00827 0.05369 0.01876 0.07874 0.00666 0.01875 0.02124 0.02813 0.04374 0.02813h0.11625c0.03042 4.2e-4 0.05042-0.00688 0.06001-0.02188 0.01181-0.02112 0.01724-0.04522 0.01562-0.06937v-0.61c2.7e-4 -0.01947-0.00401-0.03873-0.0125-0.05625-0.00625-0.00625-0.025-0.0125-0.05375-0.0125h-0.0625c-0.03175-0.00169-0.06358 0.00147-0.09438 0.00937-0.01541 0.00625-0.03124 0.02188-0.04749 0.04688l-0.03125 0.05c-0.025 0.03813-0.04063 0.05375-0.05 0.05375-0.00625 0-0.02813-0.0125-0.06625-0.04375-0.14481-0.10023-0.3177-0.15188-0.49375-0.1475-0.22563 0-0.41126 0.05313-0.56188 0.16-0.15063 0.10688-0.22312 0.26375-0.22312 0.47125 0 0.125 0.025 0.22979 0.075 0.31437 0.04597 0.08367 0.11494 0.15242 0.19875 0.19813 0.08125 0.04375 0.16875 0.08125 0.27 0.1125 0.09708 0.03167 0.19541 0.06 0.295 0.085 0.0975 0.025 0.18562 0.05687 0.2675 0.08813 0.08125 0.035 0.14749 0.08124 0.19749 0.14437 0.05 0.06312 0.07876 0.14188 0.07876 0.2325 0.00141 0.05523-0.0094 0.11009-0.03166 0.16065-0.02226 0.05057-0.05541 0.09559-0.09709 0.13185-0.085 0.075-0.22001 0.11271-0.40501 0.11312-0.15593 0.00357-0.30859-0.04504-0.43375-0.13812-0.12116-0.08133-0.21005-0.2025-0.25125-0.3425-0.00736-0.02222-0.01157-0.04536-0.01249-0.06875-0.00292-0.0325-0.01042-0.05354-0.02251-0.06312-0.02167-0.00931-0.04518-0.01358-0.06874-0.01251h-0.08501c-0.03083 0-0.05083 0.00313-0.06 0.00938-0.00875 0.00625-0.01291 0.01875-0.0125 0.0375v0.02812c0 0.0125 0.00313 0.02501 0.00313 0.03126v0.58499c0 0.0125-0.00313 0.02501-0.00313 0.03751v0.03125z"/>
  <path d="m9.9744 4.4375c0 0.0375 0.00313 0.05625 0.00938 0.0625s0.02495 0.00938 0.06245 0.00938h0.1638c0.05 4.1e-4 0.0813 0.00562 0.0938 0.01562 0.0104 0.00958 0.0158 0.03458 0.0162 0.075v1.6969c0 0.01937 0.0031 0.03187 0.0031 0.03812-4e-4 0.04042-0.0212 0.06042-0.0625 0.06h-0.2237c-0.0313 0-0.0469 0.00625-0.05315 0.0125s-0.00938 0.02813-0.00938 0.06563v0.06249c0 0.04459 0.00313 0.07209 0.00938 0.0825 0.00625 0.00875 0.02815 0.01292 0.06565 0.01251h1.025c0.0375 4.1e-4 0.0593-0.00376 0.0656-0.01251 0.0062-0.00625 0.0125-0.03124 0.0125-0.07562v-0.10063c0-0.03437-0.0219-0.05312-0.0594-0.05312-0.0093 0-0.0225 0.00313-0.0412 0.00313-0.0192 0.0025-0.0338 0.00354-0.0438 0.00312h-0.1631c-0.0475 0-0.0758-0.00313-0.085-0.00938-0.0125-0.00625-0.0156-0.02874-0.0156-0.06624v-0.63188c0-0.04438 0.0187-0.06625 0.0625-0.06625 0.0062 0 0.0187 0.00312 0.0375 0.00312h0.3081c0.2894 0 0.5062-0.06249 0.6562-0.19187 0.1488-0.12917 0.2234-0.30083 0.2238-0.515 0-0.2075-0.075-0.36437-0.22-0.4775-0.1446-0.11083-0.3646-0.16646-0.66-0.16688h-1.0306c-0.0125 0-0.025 0-0.0438-0.00312-0.0187 0-0.035-0.00312-0.0412-0.00312-0.04378 0-0.06253 0.01874-0.06253 0.05624v0.11438zm1.1781 0.95125h-0.3075c-0.0496 0-0.0794-0.00562-0.0881-0.01812-0.0094-0.01313-0.0125-0.04751-0.0125-0.11001v-0.67625c0-0.03437 0.0031-0.05625 0.0156-0.0625 0.0094-0.00625 0.0375-0.01249 0.085-0.01249h0.3075c0.2706 0 0.4081 0.13812 0.4081 0.40875 0 0.14437-0.0375 0.26062-0.1062 0.34562-0.0696 0.08375-0.1702 0.12542-0.3019 0.125z" clip-rule="evenodd" fill-rule="evenodd"/>
  <path d="m13.205 7.5c1e-4 -0.0143-0.0027-0.02848-0.0081-0.04171-0.0054-0.01324-0.0135-0.02526-0.0236-0.03537-0.0101-0.01012-0.0221-0.01812-0.0353-0.02356-0.0133-0.00544-0.0274-0.00819-0.0417-0.00811h-3.7344v-5.4875c0-0.02876-0.01143-0.05634-0.03177-0.07668-0.02033-0.02033-0.04791-0.03176-0.07667-0.03176s-0.05634 0.01143-0.07668 0.03176c-0.02034 0.02034-0.03176 0.04792-0.03176 0.07668v5.4875h-3.3362v-5.4875c0-0.02884-0.01146-0.0565-0.03185-0.0769-0.0204-0.02039-0.04806-0.03185-0.0769-0.03185s-0.0565 0.01146-0.0769 0.03185c-0.02039 0.0204-0.03185 0.04806-0.03185 0.0769v5.4875h-3.6875c-0.02884 0-0.0565 0.01146-0.0769 0.03185-0.02039 0.0204-0.03185 0.04806-0.03185 0.0769s0.01146 0.0565 0.03185 0.0769c0.0204 0.02039 0.04806 0.03185 0.0769 0.03185h5.4875v5.4876c0 0.0288 0.01146 0.0565 0.03185 0.0768 0.0204 0.0204 0.04806 0.0319 0.0769 0.0319s0.0565-0.0115 0.0769-0.0319c0.02039-0.0203 0.03185-0.048 0.03185-0.0768v-5.4876h5.4876c0.0142 0 0.0283-0.00282 0.0415-0.00829 0.0131-0.00547 0.0251-0.01349 0.0351-0.0236 0.0101-0.01011 0.018-0.0221 0.0234-0.03529s0.0088-0.02732 0.0087-0.04157z"/>
  <path d="m10.468 9.8775c0-0.01667-0.0033-0.02792-0.01-0.03375-0.0154-0.00584-0.0317-0.0086-0.0481-0.00812h-0.1094c-0.0333 0-0.0542-0.0048-0.0625-0.01438-0.0104-0.01083-0.0154-0.02917-0.015-0.055v-0.06687l-0.0356-0.89688-0.0019-0.02875v-0.025c0-0.01917 0.0042-0.03125 0.0125-0.03625 0.021-0.0065 0.043-0.00925 0.065-0.00812h0.0587c0.0396 8.3e-4 0.0634-0.00271 0.0713-0.01063 0.0083-0.00583 0.0125-0.0275 0.0125-0.065v-0.0775c0-0.02708-0.0042-0.04521-0.0125-0.05438-0.0049-0.00485-0.0108-0.00864-0.0172-0.01111-0.0065-0.00248-0.0134-0.00359-0.0203-0.00326l-0.03 0.00188h-0.54c-0.01833-5.9e-4 -0.03665 0.00151-0.05437 0.00625-0.01353 0.0037-0.02542 0.01184-0.03375 0.02312-0.0075 0.01125-0.01313 0.02104-0.01688 0.02938-0.00625 0.01254-0.01107 0.02575-0.01438 0.03937l-0.0125 0.04375-0.17437 0.47375c-0.04625 0.12333-0.08042 0.22667-0.1025 0.31-0.02083 0.0775-0.0375 0.11604-0.05 0.11563-0.0125 8.3e-4 -0.02792-0.04042-0.04625-0.12375-0.02748-0.10713-0.05812-0.21343-0.09187-0.31875l-0.17188-0.54875c-0.0055-0.01547-0.014-0.0297-0.025-0.04188-0.01613-0.00618-0.03337-0.00894-0.05062-0.00812h-0.62626c-0.01416-4.2e-4 -0.02333-0.00105-0.0275-0.00188-0.01833 0-0.03145 0.00417-0.03937 0.0125-0.00875 0.00812-0.01063 0.02688-0.01063 0.05188v0.10312c0 0.025 0.00188 0.04188 0.01063 0.04563 0.00583 0.00583 0.02521 0.00875 0.05812 0.00875h0.09688c0.02583 4.1e-4 0.04313 0.00312 0.05188 0.00812 0.00833 0.00667 0.0125 0.01646 0.0125 0.02938l-0.00375 0.06062-0.04376 0.92187v0.0525c0 0.02125-0.00416 0.03667-0.01249 0.04625-0.00834 0.00834-0.02521 0.01251-0.05063 0.01251h-0.105c-0.03792 0-0.06021 0.00333-0.06688 0.00999-0.0075 0.00584-0.01104 0.02542-0.01062 0.05876v0.09622c-4.2e-4 0.0225 0.00312 0.0379 0.01062 0.0463 0.00584 0.0079 0.01709 0.0114 0.03376 0.0106h0.02312l0.03125-0.0019h0.56563c0.02458 0 0.04062-0.0029 0.04812-0.0087 0.00625-0.0038 0.01062-0.0169 0.01062-0.0331v-0.13442c0-0.01917-0.00208-0.03105-0.00625-0.03563-0.00708-0.00564-0.01595-0.00852-0.02499-0.00812h-0.12813c-0.03375 4.1e-4 -0.05604-0.00313-0.06688-0.01063-0.01166-0.0075-0.01729-0.02083-0.01687-0.04l0.00188-0.03562 0.00437-0.03751 0.01688-0.45625 0.00187-0.12624c0-0.08334 0.00208-0.15667 0.00625-0.22 0.00208-0.0625 0.00625-0.09376 0.0125-0.09376 0.00917 0 0.02667 0.04167 0.0525 0.12501 0.02292 0.07625 0.05854 0.18812 0.10687 0.33562l0.24313 0.74125c0.00833 0.0292 0.01813 0.046 0.02938 0.0506 0.00833 0.0059 0.02916 0.0086 0.06249 0.0082h0.1575c0.01667 8e-4 0.03126-0.0025 0.04376-0.01 0.00918-0.0063 0.01651-0.015 0.02125-0.025 0.00564-0.0129 0.00984-0.0263 0.0125-0.04 0.00333-0.01672 0.00666-0.02922 0.01-0.03755l0.25624-0.75875c0.01209-0.03583 0.03355-0.11271 0.06438-0.23063 0.02083-0.08458 0.03542-0.12708 0.04375-0.12749 0.00417 4.1e-4 0.00833 0.02625 0.0125 0.0775 0.0025 0.05208 0.00458 0.11499 0.00625 0.18874l0.0025 0.10876 0.01687 0.48999c0 0.01167 6.3e-4 0.02563 0.00188 0.04188 8.3e-4 0.01667 0.00167 0.02708 0.0025 0.03125 0 0.01833-0.00563 0.03167-0.01688 0.04-0.01 0.00792-0.02958 0.01146-0.05875 0.01063h-0.09999c-0.03125 4.1e-4 -0.05105 0.00395-0.05938 0.01062-0.0075 0.00583-0.01104 0.01896-0.01062 0.03937v0.12378c0 0.0208 0.00291 0.0341 0.00875 0.04 0.00583 0.0058 0.01624 0.0085 0.03124 0.0081h0.02313l0.0275-0.0019h0.70755c0.0329 0 0.0533-0.0029 0.0612-0.0087 0.0067-0.0042 0.01-0.0202 0.01-0.04815v-0.12125z"/>
  <path d="m6.9231 8.5488c0-0.03125-0.00333-0.05-0.00999-0.05625-0.01923-0.00769-0.04006-0.01048-0.06063-0.00812h-0.52375c-0.0375 0-0.05917 0.00416-0.065 0.01249-0.0075 0.00834-0.01104 0.03334-0.01062 0.075v0.06563c0 0.03125 0.00416 0.05 0.01249 0.05625 0.00834 0.0075 0.03209 0.01104 0.07125 0.01063 0.03241-4.4e-4 0.0648 0.00165 0.09688 0.00624 0.01458 0.00375 0.02208 0.01146 0.0225 0.02313 0 0.00583-0.0075 0.03167-0.0225 0.0775l-0.145 0.41438c-0.02583 0.07125-0.05583 0.15937-0.09 0.26437-0.02583 0.07292-0.04125 0.10917-0.04625 0.10875-0.00583 0-0.02104-0.04687-0.04563-0.14062-0.0195-0.06936-0.04034-0.13833-0.0625-0.20688l-0.1575-0.4775c-0.00569-0.0157-0.00927-0.0321-0.01062-0.04875 0-0.0125 0.01438-0.02062 0.04813-0.02062h0.04812c0.03083 0 0.05042-0.00271 0.05875-0.00813 0.00833-0.00417 0.0125-0.01896 0.0125-0.04437v-0.1175c0-0.02-0.00417-0.03396-0.0125-0.04188-0.00812-0.00812-0.02312-0.0125-0.04-0.0125l-0.03312 0.00188c-0.01625 0.00208-0.02813 0.00291-0.03563 0.0025h-0.53875c-0.0125 0-0.01875-0.0025-0.02313-0.0025-0.02041 0-0.03354 0.00416-0.03937 0.0125-0.00792 0.00916-0.01146 0.02875-0.01062 0.05875v0.0625l-0.00188 0.0275v0.02312c-4.2e-4 0.015 0.00229 0.02479 0.00812 0.02938 0.00584 0.00583 0.01917 0.00875 0.04 0.00875h0.06875c0.03334 0 0.05417 0.01041 0.0625 0.03125l0.0175 0.04375c0.00493 0.01352 0.00829 0.02757 0.01 0.04187 1e-5 0.00917-0.00625 0.02875-0.01875 0.05875l-0.18187 0.4275c-0.00875 0.02292-0.02271 0.05625-0.04187 0.1-0.02125 0.04688-0.03125 0.07375-0.03563 0.0825-0.02333 0.05-0.03729 0.075-0.04188 0.075-0.00916 0-0.01833-0.01458-0.02749-0.04375-0.01567-0.04086-0.03026-0.08212-0.04375-0.12375-0.01667-0.05083-0.02792-0.08708-0.03375-0.10875l-0.16563-0.47125-0.0125-0.03375-0.01438-0.03125c-0.00268-0.00677-0.00416-0.01397-0.00437-0.02125-4.2e-4 -0.0175 0.02396-0.02646 0.07313-0.02687h0.08437c0.02292 0 0.03688-0.00292 0.04188-0.00875 0.00671-0.0173 0.00948-0.03588 0.00812-0.05438v-0.1c-4.2e-4 -0.02333-0.00396-0.03875-0.01062-0.04625-0.00435-0.00428-0.00954-0.0076-0.01525-0.00975-0.0057-0.00215-0.01179-0.00309-0.01788-0.00275-0.00417 8.3e-4 -0.0125 0.00146-0.025 0.00188h-0.67125c-0.015 0-0.025-0.0025-0.02937-0.0025-0.03375 0-0.04813 0.01875-0.04813 0.0525v0.11125c-8.3e-4 0.02916 0.0025 0.04583 0.01 0.05 0.00625 0.00583 0.02729 0.00875 0.06312 0.00875h0.0625c0.01427-3.8e-4 0.02853 8.8e-4 0.0425 0.00375 0.01 0.00208 0.01896 0.00624 0.02688 0.01249 0.00625 0.00875 0.01063 0.0125 0.0125 0.01688 0.00435 0.00948 0.00791 0.01931 0.01063 0.02938 0.00437 0.015 0.00625 0.02499 0.01062 0.03124l0.43563 1.2006 0.00812 0.02745 0.00875 0.0232c4.2e-4 0.0037 0.00396 0.0085 0.01063 0.0143 0.00232 0.0034 0.00541 6e-3 9e-3 0.0079s0.00758 0.0028 0.01162 0.0028c0.01179 0.0017 0.02372 0.0024 0.03563 0.0019h0.09374c0.01292 0 0.02501-7e-4 0.03626-0.0019l0.02499-0.0025c0.00776-5e-4 0.01518-0.0033 0.02125-0.0082l0.01251-0.0087c0.00333-0.0017 0.00666-0.0065 0.01-0.0144 0.00416-0.0058 0.00708-0.0108 0.00875-0.015l0.00812-0.0206c0.00375-0.01042 0.00729-0.01875 0.01063-0.025l0.22187-0.52813c0.00875-0.02062 0.04187-0.10874 0.105-0.26374 0.02125-0.05 0.03375-0.07751 0.04188-0.07751 0.00812 0 0.02312 0.03375 0.04 0.09625 0.02484 0.09164 0.05489 0.18179 0.09 0.27001l0.19249 0.50937 0.01063 0.03125c0.0021 0.0102 0.00546 0.02 0.01 0.0294l0.015 0.0143c0.00315 0.0043 0.00733 0.0077 0.01214 0.0098 0.00481 0.0022 0.01009 0.0032 0.01536 0.0027 0.01 0.0021 0.02458 3e-3 0.04375 0.0026h0.075c0.01917 8e-4 0.03542-7e-4 0.04875-0.0044 0.01009-0.0015 0.01995-0.0043 0.02938-0.0082 0.00791-2e-3 0.01479-0.0077 0.02062-0.0168l0.0125-0.0231c0.00445-0.0101 0.00801-0.0206 0.01062-0.0313 0.00334-0.01667 0.00688-0.02917 0.01063-0.0375l0.40438-1.1688 0.01687-0.0525c0.00591-0.00794 0.01362-0.01437 0.0225-0.01875 0.02087-0.00735 0.04288-0.01095 0.065-0.01062h0.08813c0.01483 5.3e-4 0.02965-0.00159 0.04374-0.00626 5e-3 -0.00416 0.00792-0.01458 0.00875-0.03125v-0.11812z"/>
 </g>
 <defs>
  <clipPath id="clip0_115_2">
   <rect width="15" height="15" fill="#fff"/>
  </clipPath>
 </defs>
</svg>
