<?xml version="1.0" encoding="UTF-8"?>
<svg fill="none" viewBox="0 0 15 15" xmlns="http://www.w3.org/2000/svg">
 <path d="m8.5562 13.91c0.38916-0.0556 0.61153-0.4267 0.51888-0.7791l-0.22238-0.8163c-0.09266-0.3154-0.38916-0.5009-0.68566-0.4638-1.4269 0.204-2.7982-0.2783-3.7619-1.2059-1.7605-1.7625-1.7049-4.5638-0.01853-6.2521 1.742-1.7439 4.5216-1.7439 6.2265 0 1.0193 1.0204 1.4455 2.4118 1.2416 3.7661-0.037 0.29683 0.1483 0.59366 0.4633 0.68642l0.8154 0.22263c0.3521 0.09276 0.7227-0.12987 0.7783-0.51946 0.3336-2.0036-0.278-4.1371-1.8346-5.6584-2.5203-2.5231-6.6713-2.5231-9.173 0.01856-2.5388 2.5416-2.5388 6.6602 0 9.2018 1.5381 1.5398 3.6507 2.1335 5.6521 1.7995zm-1.9458-5.8068 4.4475 4.4525c0.2409 0.2412 0.6486 0.2412 0.8895 0l0.593-0.5936c0.2594-0.2598 0.2409-0.6493 0-0.8905l-4.4475-4.4525c-0.25944-0.25973-0.63007-0.25973-0.88951 0l-0.593 0.59367c-0.2409 0.24118-0.25944 0.63077 0 0.8905z" fill="#fff"/>
</svg>
