<?xml version="1.0" encoding="UTF-8"?>
<svg enable-background="new 0 0 156 104" version="1.1" viewBox="0 0 156 156" xml:space="preserve" xmlns="http://www.w3.org/2000/svg" xmlns:cc="http://creativecommons.org/ns#" xmlns:dc="http://purl.org/dc/elements/1.1/" xmlns:rdf="http://www.w3.org/1999/02/22-rdf-syntax-ns#"><metadata><rdf:RDF><cc:Work rdf:about=""><dc:format>image/svg+xml</dc:format><dc:type rdf:resource="http://purl.org/dc/dcmitype/StillImage"/><dc:title/></cc:Work></rdf:RDF></metadata>
<g transform="translate(0 26.024)">
	<rect width="156" height="104" fill="none"/>
	
		<path d="m37.6 103.3c-10.1 0-18.9-5-23.1-13.6-10.1-21 5.4-37.4 21.7-54.7 1.2-1.2 2.4-2.5 3.6-3.8 5.3-5.7 5.2-11.5 3.5-14.8-1.8-3.4-5.5-4.9-10.2-4.2-16.5 2.6-21.2 26.4-21.2 26.6l-11.9-2.2c0.3-1.3 6.4-32.3 31.2-36.3 9.8-1.6 18.5 2.4 22.7 10.4 4.7 8.9 2.6 20.1-5.3 28.6-1.2 1.3-2.4 2.6-3.6 3.8-16.7 17.8-25.9 28.5-19.6 41.4 3.3 6.8 11.1 7.6 16.9 6.3 9.2-2.1 19.8-11.1 19.7-29.5-0.2-28.1 16.2-41.8 30.2-44.9 14.5-3.2 28.4 3.6 34.7 17 1.3 2.8 2.3 5.4 3.1 8.1 13.3 0.7 25.5 4.3 26 4.4l-3.4 11.5c-0.1 0-9.7-2.8-20.6-3.8 0.5 16.5-8.6 28.9-20.1 34.7-11.9 6-24 3.8-28.9-5.2-3.1-5.6-1.9-14.7 2.9-22.5 7.9-13 21.3-17.4 31.5-18.8-0.4-1.2-0.9-2.4-1.4-3.4-3.9-8.3-12.2-12.4-21.1-10.4-9.7 2.2-21 12.1-20.8 33.1 0.2 25.5-15.6 38.1-29 41.3-2.6 0.6-5.1 0.9-7.5 0.9zm82.2-49.6c-14 1.5-20.6 8.5-23.4 12.9-3.3 5.2-3.4 9.8-2.9 10.9 1.6 2.9 7.3 3 13 0.2 10.8-5.5 13.8-15.1 13.3-24z" fill="#fff"/>
	
</g>
</svg>
