<?xml version="1.0" encoding="UTF-8"?>
<svg width="15" height="15" viewBox="0 0 24 24" xmlns="http://www.w3.org/2000/svg">
 <g fill="none">
  <path d="m7 9a1 1 0 1 1-2 0 1 1 0 0 1 2 0m0 3a1 1 0 1 1-2 0 1 1 0 0 1 2 0m3 0a1 1 0 1 1-2 0 1 1 0 0 1 2 0m0-3a1 1 0 1 1-2 0 1 1 0 0 1 2 0m3 0a1 1 0 1 1-2 0 1 1 0 0 1 2 0m0 3a1 1 0 1 1-2 0 1 1 0 0 1 2 0m3-3a1 1 0 1 1-2 0 1 1 0 0 1 2 0m0 3a1 1 0 1 1-2 0 1 1 0 0 1 2 0m3-3a1 1 0 1 1-2 0 1 1 0 0 1 2 0m0 3a1 1 0 1 1-2 0 1 1 0 0 1 2 0" fill="#fff"/>
  <path d="M2 11c0-2.828 0-4.243.879-5.121C3.757 5 5.172 5 8 5h8c2.828 0 4.243 0 5.121.879C22 6.757 22 8.172 22 11v2c0 2.828 0 4.243-.879 5.121C20.243 19 18.828 19 16 19H8c-2.828 0-4.243 0-5.121-.879C2 17.243 2 15.828 2 13z" stroke="#fff" stroke-width="1.5"/>
  <path d="m7 16h10" stroke="#fff" stroke-linecap="round" stroke-width="1.5"/>
 </g>
</svg>
