<?xml version="1.0" encoding="UTF-8"?>
<svg enable-background="new 0 0 124 96" version="1.1" viewBox="0 0 124 124" xml:space="preserve" xmlns="http://www.w3.org/2000/svg" xmlns:cc="http://creativecommons.org/ns#" xmlns:dc="http://purl.org/dc/elements/1.1/" xmlns:rdf="http://www.w3.org/1999/02/22-rdf-syntax-ns#"><metadata><rdf:RDF><cc:Work rdf:about=""><dc:format>image/svg+xml</dc:format><dc:type rdf:resource="http://purl.org/dc/dcmitype/StillImage"/><dc:title/></cc:Work></rdf:RDF></metadata>
<g transform="translate(0,14)" fill="#fff">
	
		
			<path d="m55.4 70.8-8.5-21.8h-27.5l-8.4 21.8h-8.1l27.1-68.8h6.7l27 68.8zm-11-29-8-21.2c-1-2.7-2.1-6-3.2-9.9-0.7 3-1.7 6.3-3 9.9l-8.1 21.2z"/>
			<path d="m66.6 72.8h-12.5l-8.6-21.8h-24.7l-8.4 21.8h-12.4l28.7-72.8h9.4zm-9.8-4h4l-25.4-64.8h-1.9l1.7 6.2c1.1 3.8 2.1 7.1 3.1 9.7l9 24h-28l9.1-23.9c1.2-3.5 2.2-6.7 2.9-9.6l1.5-6.4h-1.4l-25.5 64.8h3.8l8.4-21.8h30.2zm-31.7-29h16.4l-7-18.5c-0.4-1.1-0.8-2.2-1.2-3.4-0.4 1.1-0.7 2.2-1.2 3.4z"/>
		
		
			<path d="m116.2 70.8-1.5-7.3h-0.4c-2.6 3.2-5.1 5.4-7.7 6.5s-5.7 1.7-9.5 1.7c-5.1 0-9.1-1.3-12-3.9s-4.3-6.4-4.3-11.2c0-10.4 8.3-15.8 24.9-16.3l8.7-0.3v-3.2c0-4-0.9-7-2.6-8.9s-4.5-2.9-8.3-2.9c-4.3 0-9.1 1.3-14.5 3.9l-2.4-6c2.5-1.4 5.3-2.5 8.3-3.2s6-1.2 9.1-1.2c6.1 0 10.7 1.4 13.6 4.1s4.4 7.1 4.4 13.1v35.1zm-17.5-5.5c4.8 0 8.6-1.3 11.4-4s4.1-6.4 4.1-11.2v-4.6l-7.8 0.3c-6.2 0.2-10.6 1.2-13.4 2.9s-4 4.4-4 8c0 2.8 0.9 5 2.6 6.4s4 2.2 7.1 2.2z"/>
			<path d="m97.1 73.8c-5.6 0-10.1-1.5-13.3-4.5-3.3-3-5-7.3-5-12.7 0-11.6 9-17.8 26.8-18.3l6.8-0.2v-1.3c0-3.5-0.7-6.1-2.1-7.6-1.3-1.5-3.6-2.2-6.8-2.2-4 0-8.6 1.3-13.7 3.7l-1.9 0.9-3.9-9.5 1.6-0.8c2.7-1.4 5.6-2.6 8.8-3.4s6.4-1.2 9.6-1.2c6.6 0 11.7 1.6 15 4.6 3.4 3.1 5.1 8 5.1 14.5v37.1h-9.4l-1.1-5.3c-2 2-4 3.5-6 4.4-2.9 1.1-6.4 1.8-10.5 1.8zm6.4-50.8c4.4 0 7.7 1.2 9.8 3.5s3.1 5.7 3.1 10.3v5.2l-10.7 0.3c-23 0.7-23 10.9-23 14.3 0 4.3 1.2 7.5 3.7 9.7 2.5 2.3 6.1 3.4 10.6 3.4 3.5 0 6.4-0.5 8.7-1.5 2.2-1 4.6-3 6.9-6l0.6-0.8h2.6l0.7 1.6 1.2 5.7h2.1v-32.9c0-5.4-1.3-9.3-3.8-11.6-2.6-2.4-6.7-3.5-12.3-3.5-2.8 0-5.7 0.4-8.6 1.1-2.2 0.6-4.3 1.3-6.3 2.3l0.9 2.3c5.2-2.3 9.7-3.4 13.8-3.4zm-4.8 44.3c-3.5 0-6.4-0.9-8.5-2.7-2.2-1.8-3.2-4.5-3.2-7.9 0-4.3 1.7-7.6 5-9.6 3.1-1.9 7.8-3 14.4-3.2l9.9-0.4v6.7c0 5.3-1.6 9.6-4.8 12.6s-7.5 4.5-12.8 4.5zm13.5-19.7-5.7 0.2c-5.8 0.2-10 1.1-12.4 2.6-2.1 1.4-3.1 3.4-3.1 6.3 0 2.2 0.6 3.8 1.9 4.9s3.3 1.7 5.8 1.7c4.3 0 7.6-1.1 10-3.4s3.5-5.5 3.5-9.7z"/>
		
	
	<rect y="88" width="124" height="8"/>
</g>
</svg>
