<?xml version="1.0" encoding="UTF-8"?>
<svg fill="none" viewBox="0 0 513 512" xmlns="http://www.w3.org/2000/svg">
 <g clip-path="url(#clip0_104_12)" fill="#fff">
  <path d="m344.14 116h-175l-17.5 105h210l-17.5-105zm-262.5 140s35 17.5 175 17.5 175-17.5 175-17.5l-70-35h-210l-70 35zm140 70h70v17.5h-70v-17.5z"/>
  <path d="m186.64 396c28.995 0 52.5-23.505 52.5-52.5s-23.505-52.5-52.5-52.5-52.5 23.505-52.5 52.5 23.505 52.5 52.5 52.5z"/>
  <path d="m326.64 396c28.995 0 52.5-23.505 52.5-52.5s-23.505-52.5-52.5-52.5-52.5 23.505-52.5 52.5 23.505 52.5 52.5 52.5z"/>
 </g>
 <defs>
  <clipPath id="clip0_104_12">
   <rect transform="translate(81.641 81)" width="350" height="350" fill="#fff"/>
  </clipPath>
 </defs>
</svg>
